<!-- Generated by IcoMoon.io -->
<svg version="1.1" xmlns="http://www.w3.org/2000/svg" width="1024" height="1024" viewBox="0 0 1024 1024">
<title></title>
<g id="icomoon-ignore">
</g>
<path fill="#0970ac" d="M923.607 768c17.896 0 32.538 4.539 43.926 13.617s17.082 21.066 17.082 35.963c0 14.432-5.694 26.187-17.082 35.265s-26.030 13.617-43.926 13.617v0h-822.4c-17.896 0-32.674-4.539-44.333-13.617s-17.489-20.833-17.489-35.265c0-14.897 5.83-26.885 17.489-35.963s26.437-13.617 44.333-13.617v0zM923.607 462.769c17.896 0 32.538 4.539 43.926 13.617s17.082 21.066 17.082 35.963c0 14.897-5.694 26.769-17.082 35.614s-26.030 13.268-43.926 13.268v0h-822.4c-17.896 0-32.674-4.423-44.333-13.268s-17.489-20.717-17.489-35.614c0-14.897 5.83-26.885 17.489-35.963s26.437-13.617 44.333-13.617v0zM923.607 157.538c17.896 0 32.538 4.539 43.926 13.617s17.082 21.066 17.082 35.963c0 14.897-5.694 26.769-17.082 35.614s-26.030 13.268-43.926 13.268v0h-822.4c-17.896 0-32.674-4.423-44.333-13.268s-17.489-20.717-17.489-35.614c0-14.897 5.83-26.885 17.489-35.963s26.437-13.617 44.333-13.617v0z"></path>
</svg>
